<?xml version="1.0" encoding="utf-8"?>
<!-- Generator: Adobe Illustrator 16.0.0, SVG Export Plug-In . SVG Version: 6.00 Build 0)  -->
<!DOCTYPE svg PUBLIC "-//W3C//DTD SVG 1.1//EN" "http://www.w3.org/Graphics/SVG/1.1/DTD/svg11.dtd">
<svg version="1.1" id="Layer_1" xmlns="http://www.w3.org/2000/svg" xmlns:xlink="http://www.w3.org/1999/xlink" x="0px" y="0px"
	 width="161px" height="40px" viewBox="0 0 161 40" enable-background="new 0 0 161 40" xml:space="preserve">
<path fill="#1E1E1E" d="M101.939,10.767c0.125-1.504-1.119-2.758-2.611-2.758c-1.492-0.126-2.736,1.128-2.736,2.633
	s1.12,2.758,2.612,2.758C100.695,13.526,101.939,12.272,101.939,10.767z M12.569,12.131c-0.417-0.104-0.844-0.159-1.274-0.163
	c-1.044,0-1.86,0.294-2.383,0.912c-0.359,0.456-0.587,1.042-0.587,2.508v0.489h4.896v3.582H8.325v12.214H4.08V19.459H0v-3.582h4.08
	v-0.652c0-2.54,0.588-4.07,1.698-5.146c1.11-1.074,2.775-1.856,4.93-1.856c0.849,0,1.632,0.065,2.513,0.293L12.569,12.131z
	 M33.482,19.501c1.614,0,3.001,0.777,3.873,1.942v4.695c-0.807,1.166-2.195,1.943-3.776,1.943c-2.356,0-4.13-1.814-4.13-4.275
	C29.449,21.541,31.029,19.5,33.482,19.501L33.482,19.501z M37.516,31.645h4.034V15.938h-4.034v1.263
	c-1.226-1.003-2.807-1.587-4.582-1.587c-4.26,0-7.68,3.563-7.68,8.193c0,2.139,0.774,4.08,2,5.506
	c1.388,1.619,3.582,2.656,5.906,2.656c1.58,0,3.065-0.486,4.356-1.588V31.645z M90.464,21.768c-0.13-1.393-1.394-2.752-3.11-2.752
	c-1.75,0-3.176,1.327-3.369,2.752H90.464z M94.384,29.15c-1.522,1.813-4.018,2.818-6.448,2.818c-4.697,0-8.229-3.24-8.229-8.16
	c0-4.373,2.981-8.195,7.647-8.195c4.342,0,7.42,3.66,7.42,8.031c0,0.422-0.032,0.842-0.098,1.199H83.789
	c0.227,2.202,2.01,3.725,4.245,3.725c1.782,0,3.207-1.006,3.952-1.814L94.384,29.15L94.384,29.15z M44.891,31.673v-15.72h4.083
	v1.263c1.21-0.972,2.712-1.588,4.476-1.588c2.189,0,4.182,0.973,5.488,2.528c1.046,1.232,1.634,2.821,1.634,5.51v8.007h-4.247
	v-8.329c0-1.557-0.36-2.367-0.948-2.951c-0.555-0.55-1.404-0.875-2.384-0.875c-1.797,0-3.267,1.134-3.855,1.945v10.21H44.891
	L44.891,31.673z M78.713,28.452c-1.862,2.46-4.215,3.53-7.187,3.53c-4.9,0-8.494-3.627-8.494-8.162c0-4.565,3.691-8.192,8.526-8.192
	c2.744,0,5.194,1.263,6.664,3.141l-3.005,2.624c-0.85-1.101-2.123-1.878-3.659-1.878c-2.45,0-4.28,1.91-4.28,4.306
	c0,2.461,1.797,4.275,4.378,4.275c1.731,0,3.104-1.037,3.79-2.072L78.713,28.452z M22.937,19.518c0.604,0,1.206,0.065,1.492,0.162
	l0.476-3.922c-0.051-0.007-0.103-0.015-0.155-0.023c-0.41-0.07-0.825-0.106-1.241-0.107c-1.873,0-3.555,0.746-4.475,1.913v-1.589
	h-3.968v15.72h4.126v-9.885C19.7,20.848,21.128,19.517,22.937,19.518L22.937,19.518z M104.848,15.952v15.72h4.248v-10.21
	c0.588-0.81,2.057-1.944,3.854-1.944c0.979,0,1.829,0.324,2.384,0.875c0.588,0.583,0.948,1.394,0.948,2.951v8.329h4.247v-8.006
	c0-2.69-0.588-4.279-1.635-5.51c-1.306-1.556-3.299-2.529-5.487-2.529c-1.765,0-3.267,0.616-4.476,1.588v-1.264H104.848
	L104.848,15.952z M134.02,12.132c-0.416-0.104-0.844-0.16-1.273-0.164c-1.044,0-1.859,0.294-2.383,0.912
	c-0.359,0.456-0.588,1.042-0.588,2.508v0.489h4.896v3.582h-4.896v12.214h-4.243V19.459h-4.081v-3.582h4.081v-0.652
	c0-2.54,0.587-4.07,1.696-5.146c1.11-1.074,2.775-1.856,4.931-1.856c0.849,0,1.632,0.065,2.513,0.293L134.02,12.132L134.02,12.132z
	 M97.16,31.67h4.229V15.95h-4.228L97.16,31.67L97.16,31.67z"/>
<path fill="#FFC300" d="M154.986,18.384c-0.014,1.508,1.197,2.741,2.705,2.757c0.017,0,0.034,0,0.052,0
	c1.507,0.014,2.741-1.197,2.756-2.705c0-0.017,0-0.035,0-0.052c0.015-1.507-1.195-2.742-2.702-2.757c-0.019,0-0.036,0-0.054,0
	c-1.508-0.014-2.741,1.196-2.757,2.704C154.986,18.349,154.986,18.366,154.986,18.384z M157.743,32
	c-1.508,0.014-2.741-1.196-2.757-2.703c0-0.018,0-0.035,0-0.053c-0.014-1.508,1.197-2.742,2.705-2.756c0.017,0,0.034,0,0.052,0
	c1.507-0.015,2.741,1.195,2.756,2.703c0,0.018,0,0.035,0,0.053c0.015,1.508-1.196,2.742-2.704,2.756
	C157.777,32,157.76,32,157.743,32z"/>
<path fill="#1E1E1E" d="M143.359,15.63c-0.027-0.001-0.055-0.002-0.082-0.002h-0.244c-4.393,0.123-8.055,3.692-8.055,8.246
	c0,4.431,3.539,8,7.933,8.123c4.517,0.123,8.177-3.446,8.299-8C151.353,19.519,147.838,15.772,143.359,15.63z M143.029,28.043
	c-2.285-0.064-4.127-1.912-4.127-4.207c0-2.359,1.904-4.207,4.191-4.271h0.127c2.35,0.064,4.192,1.976,4.129,4.335
	C147.286,26.258,145.381,28.107,143.029,28.043z"/>
</svg>
